HIERARCHY
ROOT Hips
{
	OFFSET 0.000000 0.000000 0.000000 
	CHANNELS 6 Xposition Yposition Zposition Zrotation Yrotation Xrotation
	JOINT LeftUpLeg
	{
		OFFSET 1.363060 -1.794630 0.839290 
		CHANNELS 3 Zrotation Yrotation Xrotation
		JOINT LeftLeg
		{
			OFFSET 2.448110 -6.726130 0.000000 
			CHANNELS 3 Zrotation Yrotation Xrotation
			JOINT LeftFoot
			{
				OFFSET 2.562200 -7.039590 0.000000 
				CHANNELS 3 Zrotation Yrotation Xrotation
				JOINT LeftToeBase
				{
					OFFSET 0.157640 -0.433110 2.322550 
					CHANNELS 3 Zrotation Yrotation Xrotation
					End Site
					{
						OFFSET 0.000000 0.000000 0.000000 
					}
				}
			}
		}
	}
	JOINT RightUpLeg
	{
		OFFSET -1.305520 -1.794630 0.839290 
		CHANNELS 3 Zrotation Yrotation Xrotation
		JOINT RightLeg
		{
			OFFSET -2.542530 -6.985550 0.000000 
			CHANNELS 3 Zrotation Yrotation Xrotation
			JOINT RightFoot
			{
				OFFSET -2.568260 -7.056230 0.000000 
				CHANNELS 3 Zrotation Yrotation Xrotation
				JOINT RightToeBase
				{
					OFFSET -0.164730 -0.452590 2.363150 
					CHANNELS 3 Zrotation Yrotation Xrotation
					End Site
					{
						OFFSET 0.000000 0.000000 0.000000 
					}
				}
			}
		}
	}
	JOINT Spine
	{
		OFFSET 0.028270 2.035590 -0.193380 
		CHANNELS 3 Zrotation Yrotation Xrotation
		JOINT Spine1
		{
			OFFSET 0.056720 2.048850 -0.042750 
			CHANNELS 3 Zrotation Yrotation Xrotation
			JOINT Neck1
			{
				OFFSET -0.054170 1.746240 0.172020 
				CHANNELS 3 Zrotation Yrotation Xrotation
				JOINT Head
				{
					OFFSET 0.104070 1.761360 -0.123970 
					CHANNELS 3 Zrotation Yrotation Xrotation
					End Site
					{
						OFFSET 0.000000 0.000000 0.000000 
					}
				}
			}
			JOINT LeftArm
			{
				OFFSET 3.362410 1.200890 -0.311210 
				CHANNELS 3 Zrotation Yrotation Xrotation
				JOINT LeftForeArm
				{
					OFFSET 4.983000 -0.000000 -0.000000 
					CHANNELS 3 Zrotation Yrotation Xrotation
					JOINT LeftHand
					{
						OFFSET 3.483560 -0.000000 -0.000000 
						CHANNELS 3 Zrotation Yrotation Xrotation
						JOINT LeftHandIndex1
						{
							OFFSET 0.715260 -0.000000 -0.000000 
							CHANNELS 3 Zrotation Yrotation Xrotation
							End Site
							{
								OFFSET 0.000000 0.000000 0.000000 
							}
						}
					}
				}
			}
			JOINT RightArm
			{
				OFFSET -3.136600 1.374050 -0.404650 
				CHANNELS 3 Zrotation Yrotation Xrotation
				JOINT RightForeArm
				{
					OFFSET -5.241900 -0.000000 -0.000000 
					CHANNELS 3 Zrotation Yrotation Xrotation
					JOINT RightHand
					{
						OFFSET -3.444170 -0.000000 -0.000000 
						CHANNELS 3 Zrotation Yrotation Xrotation
						JOINT RightHandIndex1
						{
							OFFSET -0.622530 -0.000000 -0.000000 
							CHANNELS 3 Zrotation Yrotation Xrotation
							End Site
							{
								OFFSET 0.000000 0.000000 0.000000 
							}
						}
					}
				}
			}
		}
	}
}
MOTION
Frames: 18
Frame Time: 0.041667
-5.471694 17.481987 4.660844 -77.742251 -80.742342 81.189054 -2.487282 -14.884937 -18.903400 2.288180 10.556778 29.666599 0.933430 -4.868067 1.028887 0.117900 -2.213900 -6.097000 24.127542 -3.304906 -16.883081 -10.014555 -18.106482 59.491155 1.920514 -17.957670 9.158264 -0.097800 -2.016500 5.551100 -3.572599 5.573072 -2.819217 -5.685908 2.549283 1.872394 -3.998638 21.457987 31.090956 0.479000 8.076900 14.904800 -76.595034 -10.749568 1.205393 14.153300 -30.312898 -3.823880 1.471887 1.845903 25.300640 -7.125000 0.000000 0.000000 84.237777 0.383511 16.408987 -11.712564 24.459753 -2.737845 -0.624162 0.250449 17.895722 7.125000 0.000000 0.000000 
-5.578781 17.488538 4.681786 -78.100427 -80.843954 81.553673 -2.787920 -14.798862 -18.560849 2.314370 10.604372 29.811001 0.946016 -4.959811 0.684124 0.107900 -2.117600 -5.830700 23.833410 -3.284037 -17.828625 -10.207060 -18.216324 60.105237 2.012837 -18.407403 8.999865 -0.114400 -2.180400 6.004600 -3.563280 5.481353 -2.789611 -5.598892 2.501078 1.848970 -4.006430 21.481542 31.090097 0.485700 8.077800 14.902400 -76.799167 -10.783278 2.022662 14.575441 -30.870395 -3.980425 1.468700 1.859109 24.753344 -7.125000 0.000000 0.000000 84.354035 0.274751 16.211131 -11.646565 24.357870 -2.711181 -0.623350 0.251386 17.958589 7.125000 0.000000 0.000000 
-5.684777 17.496279 4.701635 -78.497018 -80.938308 81.966707 -3.071579 -14.702657 -18.204155 2.331185 10.635630 29.902998 0.958132 -5.039612 0.338488 0.099600 -2.035100 -5.602800 23.560685 -3.250113 -18.766170 -10.364107 -18.305120 60.605469 2.108913 -18.822476 8.751805 -0.130600 -2.329000 6.415800 -3.550956 5.387413 -2.760222 -5.509163 2.451883 1.828880 -4.017490 21.509281 31.083147 0.492600 8.080000 14.898300 -77.003510 -10.796345 2.856566 15.025540 -31.453289 -4.149824 1.465859 1.871661 24.229902 -7.125000 0.000000 0.000000 84.463607 0.174561 16.055407 -11.598322 24.283035 -2.691843 -0.622579 0.252225 17.994128 7.125000 0.000000 0.000000 
-5.789681 17.505013 4.720393 -78.935273 -81.025470 82.431233 -3.338746 -14.598667 -17.833630 2.338659 10.650999 29.944022 0.969567 -5.106059 -0.001736 0.092900 -1.965500 -5.410400 23.308751 -3.202747 -19.692162 -10.483175 -18.372672 60.985076 2.207748 -19.200934 8.418747 -0.145900 -2.461700 6.783500 -3.538176 5.295210 -2.732882 -5.425263 2.403577 1.807915 -4.030398 21.534338 31.070504 0.498200 8.081600 14.892100 -77.199672 -10.785682 3.714461 15.504345 -32.060157 -4.332594 1.463325 1.883980 23.726499 -7.125000 0.000000 0.000000 84.573386 0.074905 15.930872 -11.568625 24.236793 -2.680204 -0.621816 0.252752 18.003571 7.125000 0.000000 0.000000 
-5.893692 17.514640 4.738059 -79.416108 -81.106222 82.948304 -3.590065 -14.487447 -17.451106 2.337253 10.651423 29.936787 0.980999 -5.165645 -0.330282 0.086800 -1.900800 -5.231500 23.076512 -3.141446 -20.601837 -10.562009 -18.418914 61.238387 2.307972 -19.541565 8.006067 -0.160700 -2.583200 7.120300 -3.523272 5.203169 -2.706344 -5.340614 2.355631 1.789649 -4.045793 21.559708 31.052104 0.503200 8.083300 14.884000 -77.392739 -10.753510 4.581118 16.009673 -32.687523 -4.528567 1.460767 1.896404 23.247398 -7.125000 0.000000 0.000000 84.678171 -0.020472 15.843729 -11.556579 24.218027 -2.676067 -0.621034 0.253068 17.985910 7.125000 0.000000 0.000000 
-5.996810 17.525160 4.754534 -79.933291 -81.181988 83.512165 -3.827748 -14.370714 -17.056724 2.327037 10.636924 29.881641 0.992522 -5.219941 -0.647503 0.081700 -1.843900 -5.074400 22.861713 -3.066291 -21.492109 -10.599083 -18.443628 61.361224 2.407633 -19.838961 7.517793 -0.174600 -2.691700 7.421500 -3.507256 5.111180 -2.681487 -5.257797 2.307687 1.771682 -4.062392 21.585009 31.029301 0.508000 8.085100 14.874400 -77.579797 -10.698909 5.449457 16.539629 -33.331490 -4.737394 1.457707 1.908860 22.790146 -7.125000 0.000000 0.000000 84.779706 -0.113405 15.793665 -11.561574 24.225641 -2.678932 -0.620248 0.253125 17.942048 7.125000 0.000000 0.000000 
-6.099035 17.536474 4.769917 -80.484828 -81.254848 84.120215 -4.054845 -14.248923 -16.651164 2.308213 10.608272 29.780378 1.002961 -5.260744 -0.953808 0.077600 -1.797100 -4.945100 22.661507 -2.977552 -22.358900 -10.592997 -18.446303 61.349633 2.504570 -20.089834 6.961925 -0.187100 -2.785600 7.682300 -3.490473 5.020225 -2.658270 -5.176286 2.260332 1.753555 -4.079724 21.608811 31.001998 0.512200 8.086700 14.863100 -77.760574 -10.622195 6.316825 17.094265 -33.990685 -4.959402 1.453447 1.920985 22.354313 -7.125000 0.000000 0.000000 84.877525 -0.204679 15.779209 -11.582758 24.258482 -2.688458 -0.619499 0.252929 17.871724 7.125000 0.000000 0.000000 
-6.200565 17.548582 4.784109 -81.060815 -81.325499 84.762753 -4.272129 -14.123831 -16.236159 2.281547 10.566116 29.636043 1.011893 -5.285077 -1.248206 0.074500 -1.760300 -4.843600 22.474022 -2.875219 -23.199304 -10.543112 -18.426760 61.201559 2.597050 -20.293345 6.345943 -0.198600 -2.869500 7.915800 -3.472345 4.928614 -2.636153 -5.093415 2.212586 1.736921 -4.099167 21.633551 30.969851 0.516300 8.088500 14.850600 -77.937433 -10.526600 7.172560 17.669587 -34.660330 -5.193651 1.447656 1.935281 21.940533 -7.125000 0.000000 0.000000 84.969507 -0.291971 15.800967 -11.618710 24.314073 -2.704230 -0.618678 0.252584 17.777456 7.125000 0.000000 0.000000 
-6.301400 17.561187 4.797210 -81.654415 -81.395512 85.432850 -4.481800 -13.996121 -15.813362 2.247493 10.511271 29.450846 1.019852 -5.298128 -1.529081 0.072100 -1.732800 -4.767900 22.296727 -2.760451 -24.011562 -10.449478 -18.384349 60.916266 2.682367 -20.443823 5.679449 -0.207800 -2.935000 8.097800 -3.453571 4.836569 -2.615641 -5.010567 2.164446 1.719988 -4.119489 21.657669 30.933760 0.520000 8.090400 14.836900 -78.106758 -10.408300 8.016365 18.266097 -35.339357 -5.440349 1.439463 1.950576 21.545698 -7.125000 0.000000 0.000000 85.057353 -0.377305 15.856257 -11.668727 24.391278 -2.725909 -0.617842 0.252025 17.662179 7.125000 0.000000 0.000000 
-6.401639 17.574387 4.809120 -82.257729 -81.465107 86.122355 -4.684298 -13.867251 -15.382868 2.206405 10.444129 29.226490 1.027164 -5.305029 -1.793175 0.070200 -1.709300 -4.702900 22.128798 -2.633661 -24.793390 -10.312672 -18.318685 60.494296 2.759477 -20.544086 4.968519 -0.215600 -2.989100 8.248500 -3.434222 4.744192 -2.596473 -4.927679 2.116131 1.703403 -4.140648 21.680845 30.893426 0.523400 8.092000 14.821700 -78.269624 -10.271287 8.842070 18.878216 -36.020944 -5.697606 1.429039 1.966435 21.175598 -7.125000 0.000000 0.000000 85.141056 -0.460645 15.942249 -11.731747 24.488422 -2.752995 -0.616980 0.251329 17.527697 7.125000 0.000000 0.000000 
-6.501283 17.587983 4.819938 -82.864483 -81.533507 86.824412 -4.878651 -13.737162 -14.947393 2.159387 10.366216 28.968287 1.033747 -5.305471 -2.040726 0.068500 -1.688500 -4.645400 21.970269 -2.495039 -25.543193 -10.133729 -18.229135 59.936905 2.827191 -20.594079 4.219483 -0.222300 -3.035100 8.376400 -3.413670 4.651374 -2.578494 -4.843225 2.067438 1.687564 -4.164044 21.702838 30.848457 0.525700 8.093400 14.804900 -78.426483 -10.114631 9.647662 19.503982 -36.702438 -5.964672 1.415683 1.981783 20.831679 -7.125000 0.000000 0.000000 85.218751 -0.541934 16.057018 -11.806467 24.603242 -2.785215 -0.616066 0.250464 17.375280 7.125000 0.000000 0.000000 
-6.600531 17.601977 4.829664 -83.467112 -81.601276 87.531016 -5.066016 -13.607057 -14.507478 2.107242 10.278349 28.679235 1.039640 -5.300752 -2.272404 0.066900 -1.668900 -4.591500 21.819816 -2.346084 -26.258973 -9.913468 -18.114307 59.244086 2.884076 -20.596807 3.446759 -0.226800 -3.065100 8.460000 -3.392514 4.557958 -2.561898 -4.758960 2.018515 1.672196 -4.185719 21.723633 30.800049 0.529000 8.094600 14.786500 -78.576006 -9.939272 10.431975 20.140467 -37.380179 -6.240018 1.399231 1.996275 20.516073 -7.125000 0.000000 0.000000 85.292541 -0.621748 16.195235 -11.891561 24.733748 -2.821830 -0.615144 0.249468 17.209868 7.125000 0.000000 0.000000 
-6.699281 17.616269 4.838100 -84.065573 -81.666907 88.241534 -5.244789 -13.475824 -14.064456 2.050587 10.181451 28.362796 1.045058 -5.292550 -2.488704 0.065400 -1.649800 -4.538700 21.678270 -2.185786 -26.938667 -9.653953 -17.973275 58.418838 2.928947 -20.552850 2.662149 -0.228000 -3.073400 8.483200 -3.370154 4.464681 -2.545957 -4.673356 1.969533 1.659006 -4.209442 21.742804 30.747099 0.531200 8.095300 14.766600 -78.719461 -9.747865 11.193296 20.783607 -38.050206 -6.522301 1.379892 2.009813 20.232523 -7.125000 0.000000 0.000000 85.361042 -0.699498 16.353852 -11.986064 24.878165 -2.862751 -0.614196 0.248396 17.033151 7.125000 0.000000 0.000000 
-6.797933 17.630560 4.845543 -84.646317 -81.730592 88.941561 -5.415728 -13.344482 -13.618443 1.990047 10.076411 28.021576 1.050089 -5.281870 -2.690551 0.064000 -1.632200 -4.490400 21.544443 -2.016154 -27.580788 -9.357297 -17.805096 57.465039 2.960229 -20.459750 1.874691 -0.225700 -3.058300 8.441100 -3.347000 4.371093 -2.531131 -4.588820 1.920435 1.646519 -4.235209 21.760320 30.688912 0.532400 8.095700 14.744700 -78.855906 -9.539629 11.930155 21.430245 -38.708916 -6.809612 1.357488 2.022388 19.982735 -7.125000 0.000000 0.000000 85.425574 -0.777113 16.529035 -12.089037 25.035148 -2.907493 -0.613208 0.247211 16.847712 7.125000 0.000000 0.000000 
-6.896287 17.644852 4.851796 -85.216517 -81.791511 89.638303 -5.577437 -13.211038 -13.172229 1.926631 9.964274 27.659419 1.054814 -5.269958 -2.879830 0.062700 -1.615900 -4.445200 21.417928 -1.835114 -28.185299 -9.027182 -17.609126 56.389315 2.977415 -20.320134 1.098340 -0.220900 -3.025700 8.350300 -3.322583 4.278120 -2.517073 -4.503716 1.871765 1.636463 -4.261141 21.775683 30.626622 0.533300 8.095700 14.720800 -78.986747 -9.316745 12.640970 22.076831 -39.353414 -7.100363 1.332091 2.033674 19.770100 -7.125000 0.000000 0.000000 85.484295 -0.854102 16.719252 -12.199231 25.202547 -2.955527 -0.612212 0.245954 16.654181 7.125000 0.000000 0.000000 
-6.994641 17.659044 4.857056 -85.762373 -81.850336 90.316905 -5.731613 -13.076650 -12.724337 1.860663 9.845534 27.278162 1.059324 -5.257707 -3.057170 0.061400 -1.599000 -4.398800 21.296463 -1.645008 -28.750523 -8.666940 -17.384462 55.198374 2.979805 -20.134408 0.345433 -0.213100 -2.972300 8.201500 -3.297298 4.185717 -2.503553 -4.419344 1.823300 1.628721 -4.289187 21.788605 30.559743 0.532900 8.095000 14.694900 -79.112149 -9.081277 13.325220 22.718142 -39.979284 -7.392064 1.304127 2.043806 19.595606 -7.125000 0.000000 0.000000 85.538453 -0.930658 16.919418 -12.315226 25.378269 -3.006347 -0.611215 0.244631 16.455565 7.125000 0.000000 0.000000 
-7.092995 17.672840 4.861224 -86.278307 -81.908583 90.970864 -5.880246 -12.940904 -12.276830 1.793060 9.721626 26.882455 1.063901 -5.246652 -3.225059 0.060300 -1.584100 -4.357500 21.176938 -1.446798 -29.276279 -8.280395 -17.130543 53.899680 2.967748 -19.902925 -0.379396 -0.201900 -2.893000 7.980900 -3.271209 4.093858 -2.490587 -4.335402 1.775223 1.623263 -4.317630 21.799722 30.488495 0.532400 8.094000 14.667000 -79.233197 -8.834621 13.981337 23.350287 -40.583518 -7.682531 1.273809 2.052906 19.460138 -7.125000 0.000000 0.000000 85.587447 -1.007513 17.126929 -12.436386 25.560895 -3.059741 -0.610241 0.243193 16.253273 7.125000 0.000000 0.000000 
-7.191349 17.686238 4.864400 -86.762105 -81.965980 91.598011 -6.022731 -12.803872 -11.830339 1.724331 9.593055 26.474273 1.068487 -5.237322 -3.384252 0.059200 -1.570200 -4.319300 21.058693 -1.240400 -29.763357 -7.872216 -16.847417 52.502844 2.942662 -19.635185 -1.064438 -0.188200 -2.793900 7.705600 -3.244158 4.002548 -2.477806 -4.251078 1.727551 1.621110 -4.349185 21.809829 30.412220 0.530400 8.092800 14.637000 -79.351878 -8.578038 14.606883 23.969064 -41.163248 -7.969454 1.241485 2.060628 19.365207 -7.125000 0.000000 0.000000 85.629091 -1.082892 17.341995 -12.559744 25.746416 -3.114439 -0.609246 0.241709 16.047378 7.125000 0.000000 0.000000 
